<svg width="41" height="41" viewBox="0 0 41 41" fill="none" xmlns="http://www.w3.org/2000/svg">
<g id="Group 33">
<circle id="Ellipse 12" cx="20.5342" cy="20.4092" r="20.4092" fill="#20B15A"/>
<path id="Vector" d="M30.4099 15.5396C29.7765 15.8203 29.0962 16.0099 28.3809 16.0956C29.1189 15.654 29.6711 14.959 29.9343 14.1402C29.2409 14.5521 28.4821 14.842 27.6907 14.9973C27.1585 14.4291 26.4536 14.0525 25.6855 13.9259C24.9173 13.7994 24.1289 13.93 23.4425 14.2974C22.7562 14.6649 22.2104 15.2487 21.8898 15.9581C21.5693 16.6676 21.4919 17.463 21.6697 18.2209C20.2648 18.1504 18.8903 17.7852 17.6356 17.1491C16.3809 16.513 15.274 15.6202 14.3867 14.5286C14.0833 15.0519 13.9088 15.6587 13.9088 16.305C13.9085 16.8867 14.0518 17.4596 14.3259 17.9727C14.6001 18.4858 14.9966 18.9233 15.4804 19.2464C14.9194 19.2286 14.3707 19.0769 13.88 18.8042V18.8497C13.8799 19.6657 14.1622 20.4565 14.6788 21.088C15.1955 21.7196 15.9147 22.1529 16.7145 22.3145C16.194 22.4554 15.6483 22.4761 15.1186 22.3752C15.3443 23.0773 15.7838 23.6912 16.3757 24.1311C16.9676 24.5709 17.6823 24.8147 18.4196 24.8282C17.168 25.8107 15.6222 26.3437 14.0309 26.3414C13.7491 26.3414 13.4674 26.325 13.1875 26.2921C14.8027 27.3306 16.6829 27.8817 18.6032 27.8796C25.1035 27.8796 28.657 22.4958 28.657 17.8265C28.657 17.6748 28.6532 17.5216 28.6464 17.3699C29.3376 16.87 29.9342 16.251 30.4084 15.5419L30.4099 15.5396Z" fill="#F9F9F9"/>
</g>
</svg>
