<svg width="16" height="15" viewBox="0 0 16 15" fill="none" xmlns="http://www.w3.org/2000/svg">
<path id="Vector" d="M7.87411 4.99894C6.49693 4.99894 5.37304 6.12282 5.37304 7.5C5.37304 8.87718 6.49693 10.0011 7.87411 10.0011C9.25129 10.0011 10.3752 8.87718 10.3752 7.5C10.3752 6.12282 9.25129 4.99894 7.87411 4.99894ZM15.3754 7.5C15.3754 6.4643 15.3848 5.43798 15.3267 4.40416C15.2685 3.20335 14.9946 2.13763 14.1165 1.25953C13.2365 0.379564 12.1726 0.107505 10.9718 0.049341C9.93613 -0.00882328 8.90981 0.000558085 7.87598 0.000558085C6.84028 0.000558085 5.81396 -0.00882328 4.78014 0.049341C3.57933 0.107505 2.51361 0.38144 1.63551 1.25953C0.755541 2.1395 0.483482 3.20335 0.425318 4.40416C0.367153 5.43986 0.376535 6.46618 0.376535 7.5C0.376535 8.53382 0.367153 9.56202 0.425318 10.5958C0.483482 11.7967 0.757417 12.8624 1.63551 13.7405C2.51548 14.6204 3.57933 14.8925 4.78014 14.9507C5.81584 15.0088 6.84216 14.9994 7.87598 14.9994C8.91168 14.9994 9.93801 15.0088 10.9718 14.9507C12.1726 14.8925 13.2384 14.6186 14.1165 13.7405C14.9964 12.8605 15.2685 11.7967 15.3267 10.5958C15.3867 9.56202 15.3754 8.5357 15.3754 7.5ZM7.87411 11.3482C5.74454 11.3482 4.02588 9.62956 4.02588 7.5C4.02588 5.37044 5.74454 3.65177 7.87411 3.65177C10.0037 3.65177 11.7223 5.37044 11.7223 7.5C11.7223 9.62956 10.0037 11.3482 7.87411 11.3482ZM11.8799 4.3929C11.3827 4.3929 10.9812 3.99138 10.9812 3.49417C10.9812 2.99696 11.3827 2.59544 11.8799 2.59544C12.3772 2.59544 12.7787 2.99696 12.7787 3.49417C12.7788 3.61223 12.7557 3.72917 12.7106 3.83827C12.6655 3.94738 12.5993 4.04651 12.5158 4.13C12.4323 4.21348 12.3332 4.27968 12.2241 4.32479C12.1149 4.3699 11.998 4.39305 11.8799 4.3929Z" fill="white"/>
</svg>
